<svg width="432" height="12" viewBox="0 0 432 12" fill="none" xmlns="http://www.w3.org/2000/svg">
<path d="M2.48792 11C10.7319 11 -5.75604 11 2.48792 11ZM2.48792 11C10.7319 11 10.7319 1 18.9759 1C27.2199 1 27.2199 11 35.4445 11C43.6887 11 43.6887 1 51.9131 1C60.1573 1 60.1573 11 68.3816 11C76.6258 11 76.6258 1 84.8693 1C93.1135 1 93.1135 11 101.358 11C109.601 11 109.601 1 117.845 1C126.089 1 126.089 11 134.334 11C142.577 11 142.577 1 150.821 1C159.065 1 159.065 11 167.309 11C175.553 11 175.553 1 183.797 1C192.041 1 192.041 11 200.266 11C208.51 11 208.51 1 216.734 1C224.978 1 224.978 11 233.203 11C241.447 11 241.447 1 249.691 1C257.935 1 257.935 11 266.179 11C274.422 11 274.422 1 282.667 1C290.911 1 290.911 11 299.155 11C307.398 11 307.398 1 315.642 1C323.886 1 323.886 11 332.13 11C340.374 11 340.374 1 348.618 1C356.862 1 356.862 11 365.087 11C373.331 11 373.331 1 381.556 1C389.8 1 389.8 11 398.024 11C406.268 11 406.268 1 414.512 1C422.756 1 422.756 11 431 11" stroke="#A1A6B4" stroke-miterlimit="10" stroke-linecap="square"/>
</svg>
